<mxfile host="65bd71144e">
    <diagram id="OGCqExyalkI7BgKA7OQG" name="Страница 1">
        <mxGraphModel dx="792" dy="597" grid="1" gridSize="11" guides="1" tooltips="1" connect="1" arrows="1" fold="1" page="1" pageScale="1" pageWidth="827" pageHeight="1169" background="none" math="0" shadow="0">
            <root>
                <mxCell id="0"/>
                <mxCell id="1" parent="0"/>
                <mxCell id="7" style="edgeStyle=none;html=1;exitX=0.5;exitY=1;exitDx=0;exitDy=0;entryX=0.5;entryY=0;entryDx=0;entryDy=0;" parent="1" source="2" target="4" edge="1">
                    <mxGeometry relative="1" as="geometry"/>
                </mxCell>
                <mxCell id="2" value="Start" style="ellipse;whiteSpace=wrap;html=1;" parent="1" vertex="1">
                    <mxGeometry x="354" y="10" width="120" height="80" as="geometry"/>
                </mxCell>
                <mxCell id="22" style="edgeStyle=none;html=1;entryX=0.5;entryY=0;entryDx=0;entryDy=0;" parent="1" source="4" target="39" edge="1">
                    <mxGeometry relative="1" as="geometry">
                        <mxPoint x="215.9224259803193" y="224.27107092239976" as="targetPoint"/>
                    </mxGeometry>
                </mxCell>
                <mxCell id="4" value="&lt;span&gt;string [] text&amp;nbsp;&lt;/span&gt;&lt;br&gt;&lt;span&gt;index =0&lt;br&gt;string [] result&lt;br&gt;&lt;/span&gt;count = 0&lt;span&gt;&lt;br&gt;&lt;/span&gt;" style="shape=parallelogram;perimeter=parallelogramPerimeter;whiteSpace=wrap;html=1;fixedSize=1;" parent="1" vertex="1">
                    <mxGeometry x="354" y="120" width="120" height="60" as="geometry"/>
                </mxCell>
                <mxCell id="17" value="end" style="ellipse;whiteSpace=wrap;html=1;" parent="1" vertex="1">
                    <mxGeometry x="528" y="344" width="120" height="60" as="geometry"/>
                </mxCell>
                <mxCell id="73" style="edgeStyle=none;html=1;exitX=0.5;exitY=0;exitDx=0;exitDy=0;" edge="1" parent="1" source="23">
                    <mxGeometry relative="1" as="geometry">
                        <mxPoint x="352" y="264" as="targetPoint"/>
                    </mxGeometry>
                </mxCell>
                <mxCell id="23" value="index++" style="whiteSpace=wrap;html=1;" parent="1" vertex="1">
                    <mxGeometry x="133" y="354" width="120" height="60" as="geometry"/>
                </mxCell>
                <mxCell id="70" style="edgeStyle=none;html=1;exitX=0.5;exitY=1;exitDx=0;exitDy=0;" edge="1" parent="1" source="34" target="69">
                    <mxGeometry relative="1" as="geometry"/>
                </mxCell>
                <mxCell id="34" value="result [count]=text[index]" style="rounded=0;whiteSpace=wrap;html=1;" vertex="1" parent="1">
                    <mxGeometry x="347" y="462" width="137" height="83" as="geometry"/>
                </mxCell>
                <mxCell id="37" style="edgeStyle=none;html=1;entryX=0.5;entryY=0;entryDx=0;entryDy=0;" edge="1" parent="1" source="36" target="17">
                    <mxGeometry relative="1" as="geometry"/>
                </mxCell>
                <mxCell id="36" value="&lt;span&gt;result&lt;/span&gt;" style="shape=document;whiteSpace=wrap;html=1;boundedLbl=1;" vertex="1" parent="1">
                    <mxGeometry x="528" y="238" width="120" height="70" as="geometry"/>
                </mxCell>
                <mxCell id="41" value="" style="group" vertex="1" connectable="0" parent="1">
                    <mxGeometry x="347" y="219" width="134" height="89" as="geometry"/>
                </mxCell>
                <mxCell id="39" value="" style="verticalLabelPosition=bottom;verticalAlign=top;html=1;shape=hexagon;perimeter=hexagonPerimeter2;arcSize=6;size=0.27;strokeColor=default;overflow=hidden;noLabel=0;" vertex="1" parent="41">
                    <mxGeometry width="134" height="89" as="geometry"/>
                </mxCell>
                <mxCell id="40" value="&lt;span&gt;index &amp;lt; text.length&lt;br&gt;&lt;/span&gt;" style="text;html=1;align=center;verticalAlign=middle;resizable=0;points=[];autosize=1;strokeColor=none;fillColor=none;" vertex="1" parent="41">
                    <mxGeometry x="12" y="35.5" width="110" height="22" as="geometry"/>
                </mxCell>
                <mxCell id="46" value="" style="edgeStyle=none;html=1;exitX=0.5;exitY=1;exitDx=0;exitDy=0;" edge="1" parent="1" source="55" target="34">
                    <mxGeometry relative="1" as="geometry">
                        <mxPoint x="606.3973214285716" y="308" as="sourcePoint"/>
                    </mxGeometry>
                </mxCell>
                <mxCell id="62" value="yes" style="edgeLabel;html=1;align=center;verticalAlign=middle;resizable=0;points=[];" vertex="1" connectable="0" parent="46">
                    <mxGeometry x="-0.2655" y="1" relative="1" as="geometry">
                        <mxPoint as="offset"/>
                    </mxGeometry>
                </mxCell>
                <mxCell id="51" value="вводимый текст" style="text;html=1;align=center;verticalAlign=middle;resizable=0;points=[];autosize=1;strokeColor=none;fillColor=none;" vertex="1" parent="1">
                    <mxGeometry x="481" y="120" width="110" height="22" as="geometry"/>
                </mxCell>
                <mxCell id="52" value="счетчик" style="text;html=1;align=center;verticalAlign=middle;resizable=0;points=[];autosize=1;strokeColor=none;fillColor=none;" vertex="1" parent="1">
                    <mxGeometry x="477" y="133" width="66" height="22" as="geometry"/>
                </mxCell>
                <mxCell id="53" value="результирующий массив" style="text;html=1;align=center;verticalAlign=middle;resizable=0;points=[];autosize=1;strokeColor=none;fillColor=none;" vertex="1" parent="1">
                    <mxGeometry x="481" y="147" width="154" height="22" as="geometry"/>
                </mxCell>
                <mxCell id="64" style="edgeStyle=none;html=1;fillColor=#a20025;strokeColor=#6F0000;" edge="1" parent="1" source="54">
                    <mxGeometry relative="1" as="geometry">
                        <mxPoint x="341" y="253" as="targetPoint"/>
                    </mxGeometry>
                </mxCell>
                <mxCell id="54" value="цикл for" style="text;html=1;align=center;verticalAlign=middle;resizable=0;points=[];autosize=1;strokeColor=none;fillColor=none;" vertex="1" parent="1">
                    <mxGeometry x="253" y="228" width="66" height="22" as="geometry"/>
                </mxCell>
                <mxCell id="75" style="edgeStyle=none;html=1;exitX=0;exitY=0.5;exitDx=0;exitDy=0;entryX=1;entryY=0.5;entryDx=0;entryDy=0;" edge="1" parent="1" source="55" target="23">
                    <mxGeometry relative="1" as="geometry">
                        <mxPoint x="242" y="395.9999999999999" as="targetPoint"/>
                    </mxGeometry>
                </mxCell>
                <mxCell id="76" value="no" style="edgeLabel;html=1;align=center;verticalAlign=middle;resizable=0;points=[];" vertex="1" connectable="0" parent="75">
                    <mxGeometry x="0.0592" y="1" relative="1" as="geometry">
                        <mxPoint as="offset"/>
                    </mxGeometry>
                </mxCell>
                <mxCell id="55" value="text[index].Length &amp;lt;= 3" style="rhombus;whiteSpace=wrap;html=1;strokeColor=default;" vertex="1" parent="1">
                    <mxGeometry x="334" y="344" width="159.25" height="80" as="geometry"/>
                </mxCell>
                <mxCell id="65" style="edgeStyle=none;html=1;fillColor=#d80073;strokeColor=#A50040;" edge="1" parent="1" source="59" target="55">
                    <mxGeometry relative="1" as="geometry"/>
                </mxCell>
                <mxCell id="59" value="if" style="text;html=1;align=center;verticalAlign=middle;resizable=0;points=[];autosize=1;strokeColor=none;fillColor=none;" vertex="1" parent="1">
                    <mxGeometry x="471.25" y="344" width="22" height="22" as="geometry"/>
                </mxCell>
                <mxCell id="63" value="счетчик результирующего массива" style="text;html=1;align=center;verticalAlign=middle;resizable=0;points=[];autosize=1;strokeColor=none;fillColor=none;" vertex="1" parent="1">
                    <mxGeometry x="476" y="161" width="220" height="22" as="geometry"/>
                </mxCell>
                <mxCell id="67" style="edgeStyle=none;html=1;exitX=0.5;exitY=1;exitDx=0;exitDy=0;entryX=0.5;entryY=0;entryDx=0;entryDy=0;" edge="1" parent="1" source="39" target="55">
                    <mxGeometry relative="1" as="geometry">
                        <mxPoint x="418" y="308" as="sourcePoint"/>
                        <mxPoint x="414" y="341" as="targetPoint"/>
                    </mxGeometry>
                </mxCell>
                <mxCell id="68" value="yes" style="edgeLabel;html=1;align=center;verticalAlign=middle;resizable=0;points=[];" vertex="1" connectable="0" parent="67">
                    <mxGeometry x="0.0955" relative="1" as="geometry">
                        <mxPoint as="offset"/>
                    </mxGeometry>
                </mxCell>
                <mxCell id="72" style="edgeStyle=none;html=1;exitX=0;exitY=0.5;exitDx=0;exitDy=0;entryX=0.5;entryY=1;entryDx=0;entryDy=0;" edge="1" parent="1" source="69" target="23">
                    <mxGeometry relative="1" as="geometry"/>
                </mxCell>
                <mxCell id="69" value="count++" style="whiteSpace=wrap;html=1;" vertex="1" parent="1">
                    <mxGeometry x="355.5" y="594" width="120" height="60" as="geometry"/>
                </mxCell>
                <mxCell id="77" style="edgeStyle=none;html=1;exitX=1;exitY=0.5;exitDx=0;exitDy=0;entryX=-0.002;entryY=0.396;entryDx=0;entryDy=0;entryPerimeter=0;" edge="1" parent="1" source="39" target="36">
                    <mxGeometry relative="1" as="geometry">
                        <mxPoint x="319" y="594" as="targetPoint"/>
                    </mxGeometry>
                </mxCell>
                <mxCell id="79" style="edgeStyle=none;html=1;fillColor=#a20025;strokeColor=#6F0000;" edge="1" parent="1" source="78">
                    <mxGeometry relative="1" as="geometry">
                        <mxPoint x="660" y="264" as="targetPoint"/>
                    </mxGeometry>
                </mxCell>
                <mxCell id="78" value="вывод на печать" style="text;html=1;align=center;verticalAlign=middle;resizable=0;points=[];autosize=1;strokeColor=none;fillColor=none;" vertex="1" parent="1">
                    <mxGeometry x="660" y="206" width="110" height="22" as="geometry"/>
                </mxCell>
                <mxCell id="81" style="edgeStyle=none;html=1;fillColor=#a20025;strokeColor=#6F0000;" edge="1" parent="1" source="80">
                    <mxGeometry relative="1" as="geometry">
                        <mxPoint x="660" y="374" as="targetPoint"/>
                    </mxGeometry>
                </mxCell>
                <mxCell id="80" value="Завершение программы" style="text;html=1;align=center;verticalAlign=middle;resizable=0;points=[];autosize=1;strokeColor=none;fillColor=none;" vertex="1" parent="1">
                    <mxGeometry x="638" y="322" width="154" height="22" as="geometry"/>
                </mxCell>
                <mxCell id="82" value="перенос отобранных элементов &lt;br&gt;в результирующий массив" style="text;html=1;align=center;verticalAlign=middle;resizable=0;points=[];autosize=1;strokeColor=none;fillColor=none;" vertex="1" parent="1">
                    <mxGeometry x="498" y="484" width="198" height="33" as="geometry"/>
                </mxCell>
            </root>
        </mxGraphModel>
    </diagram>
</mxfile>